<svg width="1296" height="412" viewBox="0 0 1296 412" fill="none" xmlns="http://www.w3.org/2000/svg">
<g clip-path="url(#clip0_2119_1164)">
<g clip-path="url(#clip1_2119_1164)">
<path d="M1413.23 0H-117.23V411.66H1413.23V0Z" fill="url(#paint0_linear_2119_1164)"/>
<mask id="mask0_2119_1164" style="mask-type:alpha" maskUnits="userSpaceOnUse" x="-118" y="0" width="1532" height="412">
<path d="M1413.23 0H-117.23V411.66H1413.23V0Z" fill="url(#paint1_linear_2119_1164)"/>
</mask>
<g mask="url(#mask0_2119_1164)">
<g opacity="0.17" filter="url(#filter0_d_2119_1164)">
<path d="M1125.12 -19.9705C987.738 -34.1167 967.11 82.4964 974.099 143.12C991.855 239.932 1094.83 298.368 1135.7 319.035C1168.38 335.569 1239.49 403.187 1270.96 434.93C1395.45 511.14 1437.99 368.113 1446.55 343.114C1455.11 318.115 1461.43 228.76 1512.06 160.952C1552.56 106.704 1572.58 47.9183 1577.52 25.3061C1587.96 -76.2309 1536.76 -93.9646 1514.42 -101.309C1492.09 -108.653 1442.14 -105.338 1357.39 -36.4645C1289.59 18.6345 1174.38 -2.14471 1125.12 -19.9705Z" fill="white"/>
</g>
<path opacity="0.2" d="M-117.23 0H1271.89L519.013 411.66H-117.23V0Z" fill="white"/>
</g>
</g>
</g>
<defs>
<filter id="filter0_d_2119_1164" x="937.236" y="-136.041" width="677.347" height="632.443" filterUnits="userSpaceOnUse" color-interpolation-filters="sRGB">
<feFlood flood-opacity="0" result="BackgroundImageFix"/>
<feColorMatrix in="SourceAlpha" type="matrix" values="0 0 0 0 0 0 0 0 0 0 0 0 0 0 0 0 0 0 127 0" result="hardAlpha"/>
<feOffset dy="3.6592"/>
<feGaussianBlur stdDeviation="17.8386"/>
<feComposite in2="hardAlpha" operator="out"/>
<feColorMatrix type="matrix" values="0 0 0 0 0.52549 0 0 0 0 0.733333 0 0 0 0 0.945098 0 0 0 1 0"/>
<feBlend mode="normal" in2="BackgroundImageFix" result="effect1_dropShadow_2119_1164"/>
<feBlend mode="normal" in="SourceGraphic" in2="effect1_dropShadow_2119_1164" result="shape"/>
</filter>
<linearGradient id="paint0_linear_2119_1164" x1="-117.23" y1="0" x2="1410.12" y2="271.462" gradientUnits="userSpaceOnUse">
<stop stop-color="#86BBF1"/>
<stop offset="1" stop-color="#D2EAEF"/>
</linearGradient>
<linearGradient id="paint1_linear_2119_1164" x1="-117.23" y1="0" x2="1410.12" y2="271.462" gradientUnits="userSpaceOnUse">
<stop stop-color="#86BBF1"/>
<stop offset="1" stop-color="#D2EAEF"/>
</linearGradient>
<clipPath id="clip0_2119_1164">
<rect width="1296" height="411.66" fill="white"/>
</clipPath>
<clipPath id="clip1_2119_1164">
<rect width="1530.46" height="411.66" fill="white" transform="translate(-117.23)"/>
</clipPath>
</defs>
</svg>
