<svg width="260" height="260" viewBox="0 0 260 260" fill="none" xmlns="http://www.w3.org/2000/svg">
<circle cx="130" cy="130" r="130" fill="url(#paint0_linear_2202_31)"/>
<path d="M129.84 162.875C125.173 162.875 121.017 162.073 117.371 160.469C113.746 158.844 110.882 156.615 108.777 153.781C106.694 150.927 105.621 147.635 105.559 143.906H119.184C119.267 145.469 119.777 146.844 120.715 148.031C121.673 149.198 122.944 150.104 124.527 150.75C126.111 151.396 127.892 151.719 129.871 151.719C131.934 151.719 133.757 151.354 135.34 150.625C136.923 149.896 138.163 148.885 139.059 147.594C139.954 146.302 140.402 144.813 140.402 143.125C140.402 141.417 139.923 139.906 138.965 138.594C138.027 137.26 136.673 136.219 134.902 135.469C133.152 134.719 131.069 134.344 128.652 134.344H122.684V124.406H128.652C130.694 124.406 132.496 124.052 134.059 123.344C135.642 122.635 136.871 121.656 137.746 120.406C138.621 119.135 139.059 117.656 139.059 115.969C139.059 114.365 138.673 112.958 137.902 111.75C137.152 110.521 136.09 109.563 134.715 108.875C133.361 108.188 131.777 107.844 129.965 107.844C128.132 107.844 126.454 108.177 124.934 108.844C123.413 109.49 122.194 110.417 121.277 111.625C120.361 112.833 119.871 114.25 119.809 115.875H106.84C106.902 112.187 107.954 108.938 109.996 106.125C112.038 103.312 114.788 101.115 118.246 99.5312C121.725 97.9271 125.652 97.125 130.027 97.125C134.444 97.125 138.309 97.9271 141.621 99.5312C144.934 101.135 147.507 103.302 149.34 106.031C151.194 108.74 152.111 111.781 152.09 115.156C152.111 118.74 150.996 121.729 148.746 124.125C146.517 126.521 143.611 128.042 140.027 128.688V129.188C144.736 129.792 148.319 131.427 150.777 134.094C153.257 136.74 154.486 140.052 154.465 144.031C154.486 147.677 153.434 150.917 151.309 153.75C149.204 156.583 146.298 158.813 142.59 160.438C138.882 162.062 134.632 162.875 129.84 162.875Z" fill="#307BC4"/>
<defs>
<linearGradient id="paint0_linear_2202_31" x1="0" y1="142" x2="260" y2="142" gradientUnits="userSpaceOnUse">
<stop stop-color="#CBE6F0"/>
<stop offset="1" stop-color="#98C6F0"/>
</linearGradient>
</defs>
</svg>
