<svg width="260" height="260" viewBox="0 0 260 260" fill="none" xmlns="http://www.w3.org/2000/svg">
<circle cx="130" cy="130" r="130" fill="url(#paint0_linear_2202_33)"/>
<path d="M183.703 152.25V108H194.891V152.25H183.703ZM167.172 135.719V124.531H211.422V135.719H167.172Z" fill="#307BC4"/>
<path d="M129.086 163.406C123.711 163.385 119.086 162.062 115.211 159.438C111.357 156.813 108.388 153.01 106.305 148.031C104.242 143.052 103.221 137.063 103.242 130.063C103.242 123.083 104.273 117.135 106.336 112.219C108.419 107.302 111.388 103.563 115.242 101C119.117 98.4167 123.732 97.125 129.086 97.125C134.44 97.125 139.044 98.4167 142.898 101C146.773 103.583 149.752 107.333 151.836 112.25C153.919 117.146 154.95 123.083 154.93 130.063C154.93 137.083 153.888 143.083 151.805 148.063C149.742 153.042 146.784 156.844 142.93 159.469C139.075 162.094 134.461 163.406 129.086 163.406ZM129.086 152.188C132.752 152.188 135.68 150.344 137.867 146.656C140.055 142.969 141.138 137.438 141.117 130.063C141.117 125.208 140.617 121.167 139.617 117.938C138.638 114.708 137.242 112.281 135.43 110.656C133.638 109.031 131.523 108.219 129.086 108.219C125.44 108.219 122.523 110.042 120.336 113.688C118.148 117.333 117.044 122.792 117.023 130.063C117.023 134.979 117.513 139.083 118.492 142.375C119.492 145.646 120.898 148.104 122.711 149.75C124.523 151.375 126.648 152.188 129.086 152.188Z" fill="#307BC4"/>
<path d="M69.6406 162.875C64.974 162.875 60.8177 162.073 57.1719 160.469C53.5469 158.844 50.6823 156.615 48.5781 153.781C46.4948 150.927 45.4219 147.635 45.3594 143.906H58.9844C59.0677 145.469 59.5781 146.844 60.5156 148.031C61.474 149.198 62.7448 150.104 64.3281 150.75C65.9115 151.396 67.6927 151.719 69.6719 151.719C71.7344 151.719 73.5573 151.354 75.1406 150.625C76.724 149.896 77.9635 148.885 78.8594 147.594C79.7552 146.302 80.2031 144.813 80.2031 143.125C80.2031 141.417 79.724 139.906 78.7656 138.594C77.8281 137.26 76.474 136.219 74.7031 135.469C72.9531 134.719 70.8698 134.344 68.4531 134.344H62.4844V124.406H68.4531C70.4948 124.406 72.2969 124.052 73.8594 123.344C75.4427 122.635 76.6719 121.656 77.5469 120.406C78.4219 119.135 78.8594 117.656 78.8594 115.969C78.8594 114.365 78.474 112.958 77.7031 111.75C76.9531 110.521 75.8906 109.563 74.5156 108.875C73.1615 108.188 71.5781 107.844 69.7656 107.844C67.9323 107.844 66.2552 108.177 64.7344 108.844C63.2135 109.49 61.9948 110.417 61.0781 111.625C60.1615 112.833 59.6719 114.25 59.6094 115.875H46.6406C46.7031 112.187 47.7552 108.938 49.7969 106.125C51.8385 103.312 54.5885 101.115 58.0469 99.5312C61.526 97.9271 65.4531 97.125 69.8281 97.125C74.2448 97.125 78.1094 97.9271 81.4219 99.5312C84.7344 101.135 87.3073 103.302 89.1406 106.031C90.9948 108.74 91.9115 111.781 91.8906 115.156C91.9115 118.74 90.7969 121.729 88.5469 124.125C86.3177 126.521 83.4115 128.042 79.8281 128.688V129.188C84.5365 129.792 88.1198 131.427 90.5781 134.094C93.0573 136.74 94.2865 140.052 94.2656 144.031C94.2865 147.677 93.2344 150.917 91.1094 153.75C89.0052 156.583 86.099 158.813 82.3906 160.438C78.6823 162.062 74.4323 162.875 69.6406 162.875Z" fill="#307BC4"/>
<defs>
<linearGradient id="paint0_linear_2202_33" x1="0" y1="142" x2="260" y2="142" gradientUnits="userSpaceOnUse">
<stop stop-color="#CBE6F0"/>
<stop offset="1" stop-color="#98C6F0"/>
</linearGradient>
</defs>
</svg>
