<svg width="260" height="260" viewBox="0 0 260 260" fill="none" xmlns="http://www.w3.org/2000/svg">
<circle cx="130" cy="130" r="130" fill="url(#paint0_linear_2154_360)"/>
<g clip-path="url(#clip0_2154_360)">
<path d="M102.68 134.016H112.907V144.273C112.907 145.583 113.961 146.641 115.267 146.641H127.853C129.159 146.641 130.213 145.583 130.213 144.273V134.016H140.44C141.746 134.016 142.8 132.958 142.8 131.648V119.023C142.8 117.714 141.746 116.656 140.44 116.656H130.213V106.398C130.213 105.089 129.159 104.031 127.853 104.031H115.267C113.961 104.031 112.907 105.089 112.907 106.398V116.656H102.68C101.374 116.656 100.32 117.714 100.32 119.023V131.648C100.32 132.958 101.374 134.016 102.68 134.016ZM105.04 121.391H115.267C116.573 121.391 117.627 120.333 117.627 119.023V108.766H125.493V119.023C125.493 120.333 126.547 121.391 127.853 121.391H138.08V129.281H127.853C126.547 129.281 125.493 130.339 125.493 131.648V141.906H117.627V131.648C117.627 130.339 116.573 129.281 115.267 129.281H105.04V121.391ZM149.093 160.055C149.093 161.364 148.039 162.422 146.733 162.422H96.3867C95.0808 162.422 94.0267 161.364 94.0267 160.055C94.0267 158.745 95.0808 157.687 96.3867 157.687H146.733C148.039 157.687 149.093 158.745 149.093 160.055ZM149.093 175.836C149.093 177.146 148.039 178.203 146.733 178.203H96.3867C95.0808 178.203 94.0267 177.146 94.0267 175.836C94.0267 174.526 95.0808 173.469 96.3867 173.469H146.733C148.039 173.469 149.093 174.526 149.093 175.836ZM182.826 97.7187H171.12V85.9143C171.12 81.9848 167.926 78.7812 164.009 78.7812H149.093V77.9764C149.093 74.9306 146.623 72.4687 143.602 72.4687H133.124C132.023 67.0716 127.255 63 121.56 63C115.865 63 111.097 67.0716 109.996 72.4687H99.5176C96.4811 72.4687 94.0267 74.9464 94.0267 77.9764V78.7812H79.1115C75.1939 78.7812 72 81.9848 72 85.9143V186.867C72 190.796 75.1939 194 79.1115 194H171.907C180.151 194 186.853 187.277 186.853 179.008V118.234H187.64C188.946 118.234 190 117.177 190 115.867V104.915C190 100.938 186.79 97.7187 182.826 97.7187ZM185.28 104.915V113.5H158.533V104.915C158.533 103.558 159.635 102.453 160.988 102.453H182.826C184.179 102.453 185.28 103.558 185.28 104.915ZM98.7467 77.9764C98.7467 77.5503 99.0928 77.2031 99.5176 77.2031H112.12C113.426 77.2031 114.48 76.1458 114.48 74.8359C114.48 70.9222 117.658 67.7344 121.56 67.7344C125.462 67.7344 128.64 70.9222 128.64 74.8359C128.64 76.1458 129.694 77.2031 131 77.2031H143.602C144.027 77.2031 144.373 77.5503 144.373 77.9764V87.4609C144.373 87.887 144.027 88.2342 143.602 88.2342H99.5176C99.0928 88.2342 98.7467 87.887 98.7467 87.4609V77.9764ZM76.72 186.851V85.9143C76.72 84.5887 77.7899 83.5156 79.1115 83.5156H94.0267V87.4767C94.0267 90.5225 96.4968 92.9843 99.5176 92.9843H143.587C146.623 92.9843 149.078 90.5067 149.078 87.4767V83.5156H163.993C165.314 83.5156 166.384 84.5887 166.384 85.9143V97.7187H160.972C157.023 97.7187 153.798 100.938 153.798 104.915V115.867C153.798 117.177 154.852 118.234 156.158 118.234H156.944V178.992C156.944 182.969 158.502 186.567 161.019 189.25H79.1115C77.7899 189.25 76.72 188.177 76.72 186.851ZM182.133 164H174.267V134.016H182.133V164ZM182.133 129.281H171.907C170.601 129.281 169.547 130.339 169.547 131.648V166.367C169.547 167.677 170.601 168.734 171.907 168.734H182.133V178.992C182.133 184.642 177.539 189.25 171.907 189.25C166.274 189.25 161.68 184.642 161.68 178.992V118.234H182.133V129.281Z" fill="#307BC4"/>
</g>
<defs>
<linearGradient id="paint0_linear_2154_360" x1="0" y1="142" x2="260" y2="142" gradientUnits="userSpaceOnUse">
<stop stop-color="#CBE6F0"/>
<stop offset="1" stop-color="#98C6F0"/>
</linearGradient>
<clipPath id="clip0_2154_360">
<rect width="118" height="131" fill="white" transform="translate(72 63)"/>
</clipPath>
</defs>
</svg>
