<svg width="70" height="50" viewBox="0 0 70 50" fill="none" xmlns="http://www.w3.org/2000/svg">
<path d="M70 10C70 4.47715 65.5228 0 60 0H0V35C0 43.2843 6.71573 50 15 50H70V10Z" fill="#307BC4" fill-opacity="0.5"/>
<g clip-path="url(#clip0_2123_2383)">
<g clip-path="url(#clip1_2123_2383)">
<g clip-path="url(#clip2_2123_2383)">
<path d="M17.9658 26.0789L29.1023 36.5789C29.4023 36.8522 29.8042 37.0034 30.2213 36.9999C30.6385 36.9965 31.0375 36.8388 31.3325 36.5607C31.6274 36.2825 31.7947 35.9063 31.7984 35.513C31.802 35.1197 31.6416 34.7408 31.3518 34.4579L22.9311 26.5184H50.9091C51.331 26.5184 51.7357 26.3604 52.034 26.0791C52.3324 25.7978 52.5 25.4163 52.5 25.0184C52.5 24.6206 52.3324 24.2391 52.034 23.9578C51.7357 23.6765 51.331 23.5184 50.9091 23.5184H22.9311L31.3518 15.5789C31.5038 15.4406 31.625 15.2751 31.7084 15.092C31.7917 14.909 31.8356 14.7122 31.8375 14.513C31.8393 14.3139 31.7991 14.1164 31.7191 13.932C31.6391 13.7477 31.5209 13.5802 31.3716 13.4393C31.2222 13.2985 31.0446 13.1871 30.849 13.1117C30.6535 13.0363 30.444 12.9983 30.2328 13.0001C30.0215 13.0018 29.8128 13.0432 29.6187 13.1218C29.4246 13.2004 29.249 13.3147 29.1023 13.4579L17.9658 23.9579C17.6675 24.2392 17.5 24.6207 17.5 25.0184C17.5 25.4162 17.6675 25.7976 17.9658 26.0789Z" fill="white"/>
</g>
</g>
</g>
<defs>
<clipPath id="clip0_2123_2383">
<rect width="35" height="24" fill="white" transform="matrix(-1 0 0 1 52.5 13)"/>
</clipPath>
<clipPath id="clip1_2123_2383">
<rect width="35" height="24" fill="white" transform="matrix(-1 0 0 1 52.5 13)"/>
</clipPath>
<clipPath id="clip2_2123_2383">
<rect width="35" height="24" fill="white" transform="matrix(-1 0 0 1 52.5 13)"/>
</clipPath>
</defs>
</svg>
