<svg width="45" height="45" viewBox="0 0 45 45" fill="none" xmlns="http://www.w3.org/2000/svg">
<circle cx="22.5" cy="22.5" r="22.5" fill="#307BC4"/>
<g clip-path="url(#clip0_2154_358)">
<path d="M29.1897 20.2097C29.1897 20.2097 29.1671 20.2001 29.1542 20.1969C28.2656 19.8289 27.3252 19.5602 26.3493 19.4002C28.6242 18.2067 30.1818 15.839 30.1818 13.1128C30.1818 9.19326 26.9601 6 22.9984 6C19.0367 6 15.815 9.19006 15.815 13.1128C15.815 15.8358 17.3693 18.2035 19.6474 19.4002C18.6651 19.5602 17.7215 19.8321 16.8264 20.2033C16.8167 20.2065 16.8103 20.2097 16.8006 20.2129C12.2249 22.1263 9 26.6186 9 31.8436V35.5009C9 35.776 9.2262 36 9.5041 36H36.4959C36.7738 36 37 35.776 37 35.5009V31.8436C37 26.6154 33.7751 22.1231 29.1897 20.2097ZM16.8297 13.1128C16.8297 9.7436 19.599 7.00149 23.0016 7.00149C26.4043 7.00149 29.1736 9.7436 29.1736 13.1128C29.1736 16.4821 26.4043 19.2242 23.0016 19.2242C19.599 19.2242 16.8297 16.4821 16.8297 13.1128ZM17.0138 28.4232C17.896 28.4232 18.6134 29.1335 18.6134 30.007C18.6134 30.8805 17.896 31.5909 17.0138 31.5909C16.1317 31.5909 15.4143 30.8805 15.4143 30.007C15.4143 29.1335 16.1317 28.4232 17.0138 28.4232ZM35.9918 34.9985H10.0114V31.8436C10.0114 27.3001 12.6612 23.3581 16.5098 21.4512V27.4761C15.3109 27.7097 14.4029 28.756 14.4029 30.007C14.4029 31.4309 15.5726 32.5892 17.0106 32.5892C18.4486 32.5892 19.6184 31.4309 19.6184 30.007C19.6184 28.756 18.7136 27.7097 17.5147 27.4761V21.0096C18.8267 20.5073 20.2517 20.2257 21.7414 20.2257H24.2586C25.7451 20.2257 27.1636 20.5041 28.4756 21.0032V24.3244C26.9568 24.5644 25.7903 25.8667 25.7903 27.4377V30.7078C25.7903 31.7477 26.6434 32.5924 27.6936 32.5924C27.9715 32.5924 28.1977 32.3684 28.1977 32.0932C28.1977 31.818 27.9715 31.5941 27.6936 31.5941C27.2024 31.5941 26.8017 31.1973 26.8017 30.711V27.4409C26.8017 26.2538 27.7776 25.2843 28.9797 25.2843C30.1818 25.2843 31.1576 26.2506 31.1576 27.4409V30.711C31.1576 31.1973 30.757 31.5941 30.2658 31.5941C29.9879 31.5941 29.7617 31.818 29.7617 32.0932C29.7617 32.3684 29.9879 32.5924 30.2658 32.5924C31.316 32.5924 32.1691 31.7477 32.1691 30.7078V27.4377C32.1691 25.8667 31.0058 24.5676 29.487 24.3244V21.4448C33.3421 23.3517 35.995 27.2937 35.995 31.8436V34.9985H35.9918Z" fill="white"/>
</g>
<defs>
<clipPath id="clip0_2154_358">
<rect width="28" height="30" fill="white" transform="translate(9 6)"/>
</clipPath>
</defs>
</svg>
