<svg width="45" height="45" viewBox="0 0 45 45" fill="none" xmlns="http://www.w3.org/2000/svg">
<circle cx="22.5" cy="22.5" r="22.5" fill="#307BC4"/>
<g clip-path="url(#clip0_2154_357)">
<path fill-rule="evenodd" clip-rule="evenodd" d="M29.8452 7.38091C29.2124 6.99058 28.3785 7.04582 27.8007 7.56872L17.6952 16.7305C17.1868 17.1908 17.0149 17.8831 17.1978 18.5017L15.9835 19.5991C15.7495 19.809 15.7275 20.1735 15.9397 20.4092L17.4685 22.1179C17.6806 22.3535 18.039 22.3756 18.2731 22.162L19.3959 21.1457C20.0323 21.5876 20.9101 21.5471 21.5136 21.0021L26.1621 16.7894C26.6193 17.1024 27.1716 17.2829 27.7678 17.2829C28.0896 17.2829 28.3968 17.2313 28.6821 17.1319C29.8525 18.3692 30.5693 20.0447 30.5693 21.8859C30.5693 25.6971 27.4971 28.7903 23.7117 28.7903C22.3109 28.7903 21.0088 28.3669 19.9226 27.6414H23.1411C23.4557 27.6414 23.7117 27.3837 23.7117 27.067V24.7655C23.7117 24.4488 23.4557 24.191 23.1411 24.191H10.5706C10.256 24.191 10 24.4488 10 24.7655V27.067C10 27.3837 10.256 27.6414 10.5706 27.6414H15.1643C16.2469 29.2727 17.7793 30.5726 19.5788 31.3717L18.0207 35.6838C17.8305 36.2141 17.9073 36.8032 18.2292 37.2635C18.5511 37.7238 19.0741 38 19.6336 38H27.8007C28.3603 38 28.8833 37.7275 29.2051 37.2635C29.527 36.8032 29.6038 36.2141 29.4136 35.6838L27.8555 31.3717C31.4764 29.7662 34.0037 26.1206 34.0037 21.8859C34.0037 18.8442 32.698 16.1082 30.6242 14.2118C30.5949 13.792 30.4779 13.3979 30.2914 13.0481L31.6263 11.8366C31.9665 11.531 32.1676 11.1001 32.1896 10.6435C32.2042 10.4152 32.1713 10.1906 32.0945 9.977L33.4989 8.70658C33.733 8.493 33.7513 8.12844 33.5428 7.89277L32.014 6.18414C31.8055 5.94846 31.4398 5.93005 31.2057 6.14363L29.8488 7.37355L29.8452 7.38091ZM26.7802 31.7805C25.8147 32.0861 24.7833 32.2481 23.7153 32.2481C22.6474 32.2481 21.616 32.0861 20.6504 31.7805L19.096 36.0815C19.0338 36.2582 19.0594 36.4571 19.1655 36.6081C19.2752 36.7627 19.4471 36.8511 19.6336 36.8511H27.8007C27.9872 36.8511 28.1591 36.7591 28.2688 36.6081C28.3749 36.4571 28.4005 36.2582 28.3383 36.0815L26.7839 31.7805H26.7802ZM22 35.1241H25.4307C25.7452 35.1241 26.0012 34.8663 26.0012 34.5496C26.0012 34.2329 25.7452 33.9752 25.4307 33.9752H22C21.6855 33.9752 21.4294 34.2329 21.4294 34.5496C21.4294 34.8663 21.6855 35.1241 22 35.1241ZM16.5797 27.6451C18.2548 29.7515 20.8296 31.0992 23.7153 31.0992C28.7626 31.0992 32.8589 26.9749 32.8589 21.8932C32.8589 19.4555 31.9153 17.2387 30.3755 15.5927C30.2146 15.9535 29.9805 16.2776 29.6916 16.5427C30.9497 17.9641 31.7141 19.8421 31.7141 21.8932C31.7141 26.3416 28.1298 29.9503 23.7117 29.9503C21.5318 29.9503 19.5605 29.0739 18.1122 27.6488H16.576L16.5797 27.6451ZM22.5742 25.3436V26.4925H11.1448V25.3436H22.5742ZM17.8379 19.4665C17.5855 19.6948 17.1759 20.0668 17.1759 20.0668L17.9403 20.9211L18.6023 20.3208L17.8379 19.4665ZM29.5599 12.168L30.8619 10.9897C30.9753 10.8866 31.0411 10.7466 31.0521 10.592C31.0594 10.441 31.0082 10.29 30.9058 10.1795L29.377 8.4709C29.1649 8.23523 28.8028 8.21682 28.5687 8.42671L18.4633 17.5885C18.2292 17.8021 18.2073 18.1666 18.4194 18.4023L19.9482 20.1109C20.1603 20.3466 20.5187 20.365 20.7565 20.1551L25.3685 15.9719C25.0795 15.5227 24.915 14.9887 24.915 14.4143C24.915 12.8272 26.1951 11.5383 27.7714 11.5383C28.448 11.5383 29.0698 11.7777 29.5599 12.1717V12.168ZM27.7714 12.6836C28.7187 12.6836 29.4867 13.4569 29.4867 14.4106C29.4867 15.3643 28.7187 16.1376 27.7714 16.1376C26.8241 16.1376 26.0561 15.3643 26.0561 14.4106C26.0561 13.4569 26.8241 12.6836 27.7714 12.6836ZM30.6608 8.18736L31.4252 9.04167C31.8055 8.69553 32.3066 8.24259 32.3066 8.24259L31.5422 7.38828L30.6608 8.18736Z" fill="white"/>
</g>
<defs>
<clipPath id="clip0_2154_357">
<rect width="24" height="32" fill="white" transform="translate(10 6)"/>
</clipPath>
</defs>
</svg>
