<svg width="70" height="50" viewBox="0 0 70 50" fill="none" xmlns="http://www.w3.org/2000/svg">
<path d="M0 10C0 4.47715 4.47715 0 10 0H70V35C70 43.2843 63.2843 50 55 50H0V10Z" fill="#307BC4" fill-opacity="0.5"/>
<g clip-path="url(#clip0_2123_2377)">
<g clip-path="url(#clip1_2123_2377)">
<g clip-path="url(#clip2_2123_2377)">
<path d="M52.0342 26.0789L40.8977 36.5789C40.5977 36.8522 40.1958 37.0034 39.7787 36.9999C39.3615 36.9965 38.9625 36.8388 38.6675 36.5607C38.3726 36.2825 38.2053 35.9063 38.2016 35.513C38.198 35.1197 38.3584 34.7408 38.6482 34.4579L47.0689 26.5184H19.0909C18.669 26.5184 18.2643 26.3604 17.966 26.0791C17.6676 25.7978 17.5 25.4163 17.5 25.0184C17.5 24.6206 17.6676 24.2391 17.966 23.9578C18.2643 23.6765 18.669 23.5184 19.0909 23.5184H47.0689L38.6482 15.5789C38.4962 15.4406 38.375 15.2751 38.2916 15.092C38.2083 14.909 38.1644 14.7122 38.1625 14.513C38.1607 14.3139 38.2009 14.1164 38.2809 13.932C38.3609 13.7477 38.4791 13.5802 38.6284 13.4393C38.7778 13.2985 38.9554 13.1871 39.151 13.1117C39.3465 13.0363 39.556 12.9983 39.7672 13.0001C39.9785 13.0018 40.1872 13.0432 40.3813 13.1218C40.5754 13.2004 40.751 13.3147 40.8977 13.4579L52.0342 23.9579C52.3325 24.2392 52.5 24.6207 52.5 25.0184C52.5 25.4162 52.3325 25.7976 52.0342 26.0789Z" fill="white"/>
</g>
</g>
</g>
<defs>
<clipPath id="clip0_2123_2377">
<rect width="35" height="24" fill="white" transform="translate(17.5 13)"/>
</clipPath>
<clipPath id="clip1_2123_2377">
<rect width="35" height="24" fill="white" transform="translate(17.5 13)"/>
</clipPath>
<clipPath id="clip2_2123_2377">
<rect width="35" height="24" fill="white" transform="translate(17.5 13)"/>
</clipPath>
</defs>
</svg>
