<svg width="45" height="45" viewBox="0 0 45 45" fill="none" xmlns="http://www.w3.org/2000/svg">
<circle cx="22.5" cy="22.5" r="22.5" fill="#307BC4"/>
<g clip-path="url(#clip0_2154_356)">
<path d="M19.5232 27.5222V33.0492C19.5232 35.1753 20.6365 37.1424 22.4412 38.2054C24.246 39.2684 26.469 39.2684 28.2703 38.2054C30.0751 37.1424 31.1883 35.1753 31.1918 33.0492V31.6472C32.4157 31.241 33.1694 29.9838 32.9689 28.6841C32.7649 27.3845 31.6689 26.4274 30.3828 26.4274C29.0966 26.4274 27.9972 27.3845 27.7967 28.6841C27.5961 29.9838 28.3499 31.2375 29.5738 31.6472V33.0492C29.5738 35.426 27.686 37.3472 25.3592 37.3472C23.0324 37.3472 21.1482 35.4225 21.1447 33.0492V27.5222C23.2018 27.3139 25.1138 26.3321 26.5036 24.7676C27.8935 23.2031 28.6645 21.1653 28.6679 19.0534V14.7484C28.6679 13.8478 28.1286 13.0391 27.3092 12.7036V9.98422C27.3092 8.96005 26.4967 8.13012 25.4941 8.13012H25.138C25.055 7.53327 24.5744 7.08123 23.9867 7.04238C22.9529 7.04238 22.1128 7.90056 22.1128 8.95652C22.1128 10.0125 22.9529 10.8707 23.9867 10.8707C24.5744 10.8318 25.055 10.3798 25.138 9.78292H25.4941C25.5459 9.78292 25.5943 9.80411 25.6324 9.83942C25.6704 9.87827 25.6877 9.92771 25.6877 9.98069V12.7071C24.8752 13.0461 24.3462 13.8513 24.3462 14.7484V19.0534C24.3462 21.3172 22.5484 23.1501 20.3357 23.1501C18.123 23.1501 16.3252 21.3172 16.3252 19.0534V14.7484C16.3252 13.8549 15.7962 13.0497 14.9872 12.7106V9.95597C14.9872 9.84295 15.077 9.75113 15.1877 9.75113H15.6371C15.7167 10.3515 16.2007 10.8106 16.7919 10.8495C17.8291 10.8495 18.6692 9.98775 18.6692 8.92473C18.6692 7.86171 17.8291 7 16.7919 7C16.2768 7.01766 15.8308 7.37435 15.6994 7.8829C15.6752 7.95354 15.6579 8.02064 15.6371 8.09127H15.1877C14.1816 8.09127 13.3657 8.92473 13.3622 9.95243V12.6965C12.5428 13.032 12 13.8443 12 14.7448V19.0499C12.0035 21.1618 12.7744 23.1995 14.1643 24.764C15.5542 26.3286 17.4626 27.3103 19.5232 27.5187V27.5222ZM30.3828 28.0944C30.7873 28.0944 31.1503 28.3416 31.3059 28.723C31.4615 29.1044 31.375 29.5423 31.0881 29.8319C30.8046 30.125 30.3724 30.2098 30.0025 30.0544C29.6291 29.8955 29.3836 29.5247 29.3836 29.1115C29.3836 28.5499 29.8331 28.0908 30.3828 28.0908V28.0944ZM13.6215 14.7448C13.6215 14.4411 13.8635 14.1939 14.1608 14.1939C14.4582 14.1939 14.7002 14.4411 14.7002 14.7448V19.0499C14.7002 21.1053 15.7754 23.0053 17.5179 24.033C19.2605 25.0607 21.4075 25.0607 23.15 24.033C24.8925 23.0053 25.9643 21.1053 25.9643 19.0499V14.7448C25.9643 14.4411 26.2063 14.1939 26.5036 14.1939C26.801 14.1939 27.043 14.4411 27.043 14.7448V19.0499C27.043 21.5008 25.7637 23.7646 23.6859 24.9901C21.608 26.212 19.0496 26.212 16.9751 24.9901C14.8973 23.7646 13.618 21.5008 13.618 19.0499V14.7448H13.6215Z" fill="white"/>
</g>
<defs>
<clipPath id="clip0_2154_356">
<rect width="21" height="32" fill="white" transform="translate(12 7)"/>
</clipPath>
</defs>
</svg>
