<svg width="260" height="260" viewBox="0 0 260 260" fill="none" xmlns="http://www.w3.org/2000/svg">
<circle cx="130" cy="130" r="130" fill="url(#paint0_linear_2202_32)"/>
<path d="M206.52 152.25V108H217.707V152.25H206.52ZM189.988 135.719V124.531H234.238V135.719H189.988Z" fill="#307BC4"/>
<path d="M151.902 163.406C146.527 163.385 141.902 162.062 138.027 159.438C134.173 156.813 131.204 153.01 129.121 148.031C127.058 143.052 126.038 137.063 126.058 130.063C126.058 123.083 127.09 117.135 129.152 112.219C131.236 107.302 134.204 103.563 138.058 101C141.933 98.4167 146.548 97.125 151.902 97.125C157.256 97.125 161.861 98.4167 165.715 101C169.59 103.583 172.569 107.333 174.652 112.25C176.736 117.146 177.767 123.083 177.746 130.063C177.746 137.083 176.704 143.083 174.621 148.063C172.558 153.042 169.6 156.844 165.746 159.469C161.892 162.094 157.277 163.406 151.902 163.406ZM151.902 152.188C155.569 152.188 158.496 150.344 160.683 146.656C162.871 142.969 163.954 137.438 163.933 130.063C163.933 125.208 163.433 121.167 162.433 117.938C161.454 114.708 160.058 112.281 158.246 110.656C156.454 109.031 154.34 108.219 151.902 108.219C148.256 108.219 145.34 110.042 143.152 113.688C140.965 117.333 139.861 122.792 139.84 130.063C139.84 134.979 140.329 139.083 141.308 142.375C142.308 145.646 143.715 148.104 145.527 149.75C147.34 151.375 149.465 152.188 151.902 152.188Z" fill="#307BC4"/>
<path d="M91.3162 163.406C85.9412 163.385 81.3162 162.062 77.4412 159.438C73.5871 156.813 70.6183 153.01 68.535 148.031C66.4725 143.052 65.4516 137.063 65.4725 130.063C65.4725 123.083 66.5037 117.135 68.5662 112.219C70.6496 107.302 73.6183 103.563 77.4725 101C81.3475 98.4167 85.9621 97.125 91.3162 97.125C96.6704 97.125 101.275 98.4167 105.129 101C109.004 103.583 111.983 107.333 114.066 112.25C116.15 117.146 117.181 123.083 117.16 130.063C117.16 137.083 116.118 143.083 114.035 148.063C111.972 153.042 109.014 156.844 105.16 159.469C101.306 162.094 96.6912 163.406 91.3162 163.406ZM91.3162 152.188C94.9829 152.188 97.91 150.344 100.097 146.656C102.285 142.969 103.368 137.438 103.347 130.063C103.347 125.208 102.847 121.167 101.847 117.938C100.868 114.708 99.4725 112.281 97.66 110.656C95.8683 109.031 93.7537 108.219 91.3162 108.219C87.6704 108.219 84.7537 110.042 82.5662 113.688C80.3787 117.333 79.2746 122.792 79.2537 130.063C79.2537 134.979 79.7433 139.083 80.7225 142.375C81.7225 145.646 83.1287 148.104 84.9412 149.75C86.7537 151.375 88.8787 152.188 91.3162 152.188Z" fill="#307BC4"/>
<path d="M51.0117 98V162H37.4805V110.844H37.1055L22.4492 120.031V108.031L38.293 98H51.0117Z" fill="#307BC4"/>
<defs>
<linearGradient id="paint0_linear_2202_32" x1="0" y1="142" x2="260" y2="142" gradientUnits="userSpaceOnUse">
<stop stop-color="#CBE6F0"/>
<stop offset="1" stop-color="#98C6F0"/>
</linearGradient>
</defs>
</svg>
