<svg width="80" height="80" viewBox="0 0 80 80" fill="none" xmlns="http://www.w3.org/2000/svg">
<circle cx="40" cy="40" r="40" fill="#307BC4"/>
<path d="M40 43.125C38.4548 43.125 36.9444 42.6668 35.6596 41.8084C34.3749 40.9499 33.3735 39.7298 32.7822 38.3022C32.1909 36.8747 32.0362 35.3038 32.3376 33.7884C32.6391 32.2729 33.3831 30.8808 34.4757 29.7882C35.5683 28.6956 36.9604 27.9516 38.4759 27.6501C39.9913 27.3487 41.5622 27.5034 42.9897 28.0947C44.4173 28.686 45.6374 29.6874 46.4959 30.9721C47.3543 32.2569 47.8125 33.7673 47.8125 35.3125C47.81 37.3837 46.9861 39.3694 45.5215 40.834C44.0569 42.2986 42.0712 43.1225 40 43.125ZM40 30.625C39.0729 30.625 38.1666 30.8999 37.3958 31.415C36.6249 31.9301 36.0241 32.6621 35.6693 33.5187C35.3145 34.3752 35.2217 35.3177 35.4026 36.227C35.5834 37.1363 36.0299 37.9715 36.6854 38.6271C37.341 39.2826 38.1762 39.7291 39.0855 39.9099C39.9948 40.0908 40.9373 39.998 41.7938 39.6432C42.6504 39.2884 43.3825 38.6876 43.8975 37.9167C44.4126 37.1459 44.6875 36.2396 44.6875 35.3125C44.6863 34.0697 44.192 32.8781 43.3132 31.9993C42.4344 31.1205 41.2428 30.6262 40 30.625Z" fill="white"/>
<path d="M40 61.875L26.8188 46.3297C26.6356 46.0963 26.4544 45.8614 26.275 45.625C24.0234 42.659 22.8071 39.0363 22.8125 35.3125C22.8125 30.7541 24.6233 26.3824 27.8466 23.1591C31.0699 19.9358 35.4416 18.125 40 18.125C44.5584 18.125 48.9301 19.9358 52.1534 23.1591C55.3767 26.3824 57.1875 30.7541 57.1875 35.3125C57.193 39.0346 55.9772 42.6557 53.7266 45.6203L53.725 45.625C53.725 45.625 53.2563 46.2406 53.186 46.3234L40 61.875ZM28.7703 43.7422C28.7703 43.7422 29.1344 44.2234 29.2172 44.3266L40 57.0437L50.7969 44.3094C50.8656 44.2234 51.2313 43.7391 51.2328 43.7375C53.0721 41.3142 54.0661 38.3547 54.0625 35.3125C54.0625 31.5829 52.5809 28.006 49.9437 25.3688C47.3065 22.7316 43.7296 21.25 40 21.25C36.2704 21.25 32.6936 22.7316 30.0563 25.3688C27.4191 28.006 25.9375 31.5829 25.9375 35.3125C25.9342 38.3566 26.9294 41.3178 28.7703 43.7422Z" fill="white"/>
</svg>
