<svg width="40" height="40" viewBox="0 0 40 40" fill="none" xmlns="http://www.w3.org/2000/svg">
<rect width="40" height="40" rx="20" fill="#307BC4"/>
<g clip-path="url(#clip0_2095_901)">
<g clip-path="url(#clip1_2095_901)">
<g clip-path="url(#clip2_2095_901)">
<path d="M26.1721 19.0357C26.5791 18.7544 27 18.4637 27 18.0213C27 17.5789 26.5791 17.2882 26.1721 17.0069C25.9523 16.8552 25.6513 16.6472 25.6153 16.5117C25.5757 16.3633 25.7304 16.0354 25.8548 15.7722C26.0618 15.3333 26.2761 14.8795 26.0627 14.5094C25.8463 14.1344 25.3426 14.0939 24.8557 14.0547C24.5696 14.0318 24.2136 14.0031 24.1094 13.8987C24.0053 13.7944 23.9768 13.4373 23.9539 13.1503C23.9149 12.6619 23.8747 12.157 23.5007 11.94C23.1314 11.7259 22.6792 11.9407 22.2417 12.1483C21.979 12.273 21.6523 12.4282 21.504 12.3885C21.3688 12.3524 21.1617 12.0506 21.0103 11.8303C20.7297 11.4221 20.4397 11 19.9985 11C19.5574 11 19.2675 11.4221 18.9872 11.8303C18.8359 12.0507 18.6287 12.3524 18.4937 12.3887C18.3454 12.4285 18.0191 12.2733 17.7564 12.1486C17.3186 11.941 16.8662 11.7263 16.4974 11.9407C16.1236 12.1577 16.0834 12.6626 16.0447 13.1509C16.022 13.4379 15.9936 13.7949 15.8895 13.8993C15.7856 14.0037 15.4296 14.0324 15.1435 14.0553C14.6567 14.0946 14.1532 14.1351 13.9369 14.5101C13.7234 14.8804 13.9378 15.334 14.1451 15.7727C14.2694 16.0359 14.4242 16.3635 14.3846 16.512C14.3486 16.6475 14.0476 16.8553 13.8279 17.007C13.4209 17.2883 13 17.579 13 18.0213C13 18.4636 13.4209 18.7544 13.8279 19.0355C14.0477 19.1873 14.3486 19.3952 14.3846 19.5306C14.4242 19.6789 14.2694 20.0066 14.1449 20.27C13.9378 20.7086 13.7234 21.1622 13.9368 21.5323C14.153 21.9074 14.6565 21.9479 15.1435 21.9871C15.2229 21.9935 15.3074 22.0006 15.3906 22.0093L13.2043 27.2185C13.1197 27.4201 13.1561 27.6476 13.2995 27.8121C13.443 27.9769 13.6629 28.0438 13.8733 27.9869L15.0754 27.6654L15.7856 28.7448C15.9041 28.9248 16.1088 29.0167 16.3093 28.9975C16.5173 28.9786 16.6973 28.847 16.7791 28.6542L18.7823 23.9254C19.1308 24.3799 19.4462 25.0427 19.9985 25.0427C20.5519 25.0427 20.867 24.378 21.2169 23.9235L23.2209 28.6543C23.3027 28.847 23.4827 28.9786 23.6908 28.9975C23.8912 29.0167 24.0959 28.9248 24.2144 28.7448L24.93 27.6632L26.1267 27.9869C26.3372 28.0438 26.5569 27.9769 26.7005 27.8121C26.8439 27.6476 26.8803 27.4201 26.7958 27.2187L24.6097 22.0101C24.6926 22.0014 24.7767 21.9944 24.8557 21.988C25.3426 21.949 25.8462 21.9085 26.0625 21.5334C26.276 21.1632 26.0618 20.7094 25.8546 20.2705C25.7304 20.0071 25.5757 19.6795 25.6153 19.5311C25.6513 19.3955 25.9523 19.1876 26.1721 19.0357ZM16.2538 28.435L15.5438 27.3556C15.4083 27.1496 15.1579 27.0565 14.924 27.1201L13.7213 27.4369L15.9229 22.1911C15.9667 22.2714 15.9918 22.4097 16.0048 22.4998C16.0091 22.5384 16.0186 22.5702 16.0443 22.8927C16.083 23.3805 16.123 23.8849 16.4969 24.1035C16.8665 24.3162 17.3185 24.1023 17.7554 23.8949C17.9244 23.815 18.1198 23.7222 18.2776 23.6768L16.2538 28.435ZM25.0762 27.1202C24.8408 27.0565 24.5908 27.1507 24.4561 27.3556L23.7372 28.4342L21.7221 23.6774C21.9035 23.7301 22.127 23.841 22.3526 23.9466C22.8445 24.177 23.3747 24.3673 23.7029 23.9155C23.7094 23.9067 23.7177 23.8994 23.7238 23.8904C23.7253 23.888 23.7263 23.8853 23.7278 23.8828C23.8945 23.6266 23.9248 23.2551 23.9538 22.8923C23.9618 22.7915 23.9708 22.6823 23.9833 22.5782C23.9842 22.57 23.9851 22.5615 23.9861 22.5532C23.9899 22.5233 23.9942 22.4942 23.9988 22.4656C24.0056 22.4233 24.0131 22.3828 24.0219 22.3456C24.0257 22.3294 24.0302 22.3151 24.0344 22.3003C24.0456 22.2614 24.0577 22.2253 24.0725 22.1973C24.0737 22.1948 24.0752 22.1927 24.0765 22.1904L26.276 27.4443C25.6398 27.2725 25.043 27.1113 25.0762 27.1202ZM25.3477 20.5111C25.4653 20.7605 25.6431 21.1371 25.5769 21.2516C25.5079 21.3714 25.0885 21.405 24.8108 21.4274C24.586 21.4454 24.358 21.465 24.1555 21.5175C23.4987 21.654 23.4422 22.2387 23.3937 22.8482C23.3771 23.0568 23.3542 23.3455 23.2939 23.506C23.2103 23.7265 23.0152 23.6352 22.5842 23.4345L22.5809 23.4329C22.5559 23.421 22.5473 23.4172 22.4816 23.386C22.2599 23.2808 22.0342 23.175 21.8157 23.1218C21.7995 23.1179 21.7831 23.1127 21.767 23.1093C21.7609 23.108 21.7549 23.1077 21.7488 23.1065C21.5361 23.0654 21.3383 23.0823 21.1566 23.2037C20.9217 23.3527 20.7322 23.6256 20.5483 23.8933C20.3877 24.127 20.145 24.4802 19.9985 24.4802C19.8522 24.4802 19.6097 24.127 19.4492 23.8933C18.8681 23.0466 18.596 22.8851 17.6598 23.3187C17.595 23.3487 17.5576 23.3659 17.5163 23.3854C17.2678 23.5034 16.8925 23.6814 16.7783 23.6152C16.6591 23.546 16.6259 23.1253 16.6037 22.847C16.5126 21.6984 16.3033 21.5164 15.1884 21.4264C14.9108 21.404 14.4914 21.3703 14.4224 21.2508C14.3564 21.1363 14.5341 20.7598 14.6519 20.5108C14.8325 20.1285 15.0192 19.7333 14.9266 19.3853C14.837 19.0495 14.4858 18.8069 14.1462 18.5723C13.9131 18.4114 13.5609 18.168 13.5609 18.0213C13.5609 17.8745 13.9131 17.6313 14.146 17.4704C14.4858 17.2357 14.837 16.993 14.9266 16.6571C15.0192 16.3094 14.8325 15.9142 14.6519 15.5319C14.5343 15.2827 14.3564 14.9063 14.4225 14.7918C14.4914 14.6722 14.9108 14.6384 15.1884 14.6161C15.6053 14.5825 16.0363 14.5478 16.2864 14.297C16.5364 14.046 16.5707 13.6136 16.6038 13.1955C16.626 12.9171 16.6593 12.4966 16.7784 12.4274C16.8925 12.3616 17.268 12.5392 17.5165 12.6572C17.8977 12.838 18.2918 13.025 18.6386 12.9321C18.9734 12.8423 19.2153 12.49 19.4492 12.1494C19.6097 11.9157 19.8522 11.5625 19.9985 11.5625C20.145 11.5625 20.3878 11.9157 20.5484 12.1494C20.7823 12.49 21.0243 12.8421 21.3591 12.9319C21.7061 13.0248 22.1005 12.8377 22.4816 12.6567C22.73 12.5389 23.1058 12.3607 23.2197 12.4268C23.3391 12.4961 23.3726 12.9168 23.3948 13.1953C23.4282 13.6134 23.4626 14.0457 23.7128 14.2966C23.963 14.5473 24.3941 14.5819 24.8109 14.6155C25.0885 14.6378 25.5081 14.6715 25.5771 14.7911C25.6432 14.9056 25.4655 15.2822 25.3478 15.5314C25.1674 15.9136 24.9807 16.309 25.0734 16.6568C25.1628 16.9928 25.5141 17.2354 25.8538 17.4701C26.0869 17.6311 26.4391 17.8744 26.4391 18.0213C26.4391 18.1682 26.0869 18.4115 25.8538 18.5726C25.5141 18.8071 25.1628 19.05 25.0733 19.3859C24.9807 19.7337 25.1672 20.1289 25.3477 20.5111Z" fill="white"/>
<path d="M19.9998 13.8584C17.7109 13.8584 15.8486 15.7258 15.8486 18.0214C15.8486 20.3167 17.7109 22.1842 19.9998 22.1842C22.2887 22.1842 24.1509 20.3167 24.1509 18.0214C24.1509 15.7258 22.2887 13.8584 19.9998 13.8584ZM19.9998 21.6217C18.0201 21.6217 16.4095 20.0066 16.4095 18.0214C16.4095 16.036 18.0201 14.4209 19.9998 14.4209C21.9795 14.4209 23.59 16.036 23.59 18.0214C23.59 20.0066 21.9795 21.6217 19.9998 21.6217Z" fill="white"/>
<path d="M21.9079 17.1064H20.8024L20.4583 16.0498C20.3931 15.8499 20.2084 15.7156 19.9986 15.7156C19.7886 15.7157 19.6037 15.8504 19.5386 16.0508L19.1971 17.1064H18.092C17.882 17.1064 17.6972 17.241 17.6323 17.4414C17.5673 17.6417 17.6378 17.8596 17.8076 17.9836L18.7017 18.6357L18.3604 19.6904C18.2957 19.8908 18.3663 20.1086 18.5364 20.2323C18.7062 20.3559 18.9349 20.3559 19.1047 20.232L19.9982 19.5806L20.8961 20.2337C21.0673 20.3583 21.296 20.3564 21.4644 20.2334C21.6342 20.1095 21.7047 19.8919 21.64 19.6915L21.2983 18.6357L22.1924 17.9834C22.3622 17.8596 22.4327 17.6417 22.3676 17.4414C22.3027 17.241 22.118 17.1064 21.9079 17.1064ZM20.9227 18.214C20.7531 18.3379 20.6826 18.5555 20.7474 18.7558L21.0332 19.6385L20.2821 19.0922C20.1972 19.0304 20.0976 18.9995 19.9981 18.9995C19.8985 18.9995 19.7988 19.0304 19.7138 19.0925L18.9675 19.6367L19.2526 18.7558C19.3173 18.5555 19.2468 18.3379 19.0772 18.2139L18.33 17.6689H19.2533C19.4636 17.6689 19.6485 17.5342 19.7132 17.3337L19.9989 16.4508L20.2867 17.3345C20.3518 17.5346 20.5365 17.6689 20.7464 17.6689H21.6699L20.9227 18.214Z" fill="white"/>
</g>
</g>
</g>
<defs>
<clipPath id="clip0_2095_901">
<rect width="14" height="18" fill="white" transform="translate(13 11)"/>
</clipPath>
<clipPath id="clip1_2095_901">
<rect width="14" height="18" fill="white" transform="translate(13 11)"/>
</clipPath>
<clipPath id="clip2_2095_901">
<rect width="14" height="18" fill="white" transform="translate(13 11)"/>
</clipPath>
</defs>
</svg>
