<svg width="260" height="260" viewBox="0 0 260 260" fill="none" xmlns="http://www.w3.org/2000/svg">
<circle cx="130" cy="130" r="130" fill="url(#paint0_linear_2154_359)"/>
<g clip-path="url(#clip0_2154_359)">
<path d="M125.667 139.84C126.896 139.84 127.897 138.838 127.897 137.608V125.241H140.248C141.477 125.241 142.478 124.239 142.478 123.008V109.353C142.478 108.123 141.477 107.121 140.248 107.121H127.897V94.7541C127.897 93.5232 126.896 92.5212 125.667 92.5212H112.03C110.8 92.5212 109.8 93.5232 109.8 94.7541V107.121H97.4487C96.2194 107.121 95.2188 108.123 95.2188 109.353V123.008C95.2188 124.239 96.2194 125.241 97.4487 125.241H109.8V137.608C109.8 138.838 110.8 139.84 112.03 139.84H125.667ZM99.693 120.775V111.601H112.044C113.273 111.601 114.274 110.599 114.274 109.368V97.0012H123.437V109.368C123.437 110.599 124.437 111.601 125.667 111.601H138.018V120.775H125.667C124.437 120.775 123.437 121.777 123.437 123.008V135.375H114.274V123.008C114.274 121.777 113.273 120.775 112.044 120.775H99.693Z" fill="#307BC4"/>
<path d="M187.792 111.443H171.696V89.4866C171.696 80.956 164.763 74.0142 156.243 74.0142H81.4527C72.933 73.9999 66 80.9417 66 89.4723V142.874C66 151.405 72.933 158.347 81.4527 158.347H87.285C86.7132 161.582 84.4975 164.888 76.9785 166.377C75.9206 166.577 75.163 167.522 75.1773 168.595C75.1773 169.669 75.9635 170.585 77.0213 170.771C77.3644 170.828 80.2949 171.329 84.3403 171.329C92.3311 171.329 104.668 169.397 110.028 158.347H119.134V163.972C119.134 170.713 124.623 176.21 131.356 176.21H165.907C170.152 184.54 179.544 186 185.634 186C188.736 186 190.966 185.613 191.237 185.57C192.295 185.384 193.067 184.468 193.081 183.395C193.081 182.321 192.338 181.391 191.28 181.176C186.42 180.217 184.676 178.285 184.076 176.21H187.792C194.525 176.21 200.014 170.713 200.014 163.972V123.666C200.014 116.925 194.525 111.429 187.792 111.429V111.443ZM108.57 153.867C107.655 153.867 106.84 154.425 106.497 155.27C103.052 163.772 94.2609 166.191 87.2993 166.706C90.3727 164.158 91.9166 160.608 91.9166 156.114C91.9166 154.883 90.9159 153.881 89.6866 153.881H81.4527C75.3917 153.881 70.46 148.943 70.46 142.874V89.4723C70.46 83.4036 75.3917 78.4656 81.4527 78.4656H156.243C162.304 78.4656 167.236 83.4036 167.236 89.4723V142.874C167.236 148.943 162.304 153.881 156.243 153.881H108.57V153.867ZM195.54 163.972C195.54 168.252 192.066 171.73 187.792 171.73H181.574C180.345 171.73 179.344 172.732 179.344 173.963C179.344 176.925 180.187 179.359 181.846 181.262C177.071 180.647 171.639 178.672 169.409 173.132C169.066 172.288 168.251 171.73 167.336 171.73H131.342C127.068 171.73 123.594 168.252 123.594 163.972V158.347H156.243C164.763 158.347 171.696 151.405 171.696 142.874V115.909H187.792C192.066 115.909 195.54 119.387 195.54 123.666V163.972Z" fill="#307BC4"/>
</g>
<defs>
<linearGradient id="paint0_linear_2154_359" x1="0" y1="142" x2="260" y2="142" gradientUnits="userSpaceOnUse">
<stop stop-color="#CBE6F0"/>
<stop offset="1" stop-color="#98C6F0"/>
</linearGradient>
<clipPath id="clip0_2154_359">
<rect width="134" height="112" fill="white" transform="translate(66 74)"/>
</clipPath>
</defs>
</svg>
