<svg width="260" height="260" viewBox="0 0 260 260" fill="none" xmlns="http://www.w3.org/2000/svg">
<circle cx="130" cy="130" r="130" fill="url(#paint0_linear_2154_361)"/>
<g clip-path="url(#clip0_2154_361)">
<path d="M127.695 91.8884H114.081V78.3568C114.081 76.6654 112.622 75.2156 110.921 75.2156C109.219 75.2156 107.76 76.6654 107.76 78.3568V91.8884H94.1458C92.444 91.8884 90.9854 93.3383 90.9854 95.0297C90.9854 96.7212 92.444 98.171 94.1458 98.171H107.76V111.703C107.76 113.394 109.219 114.844 110.921 114.844C112.622 114.844 114.081 113.394 114.081 111.703V98.171H127.695C129.397 98.171 130.856 96.7212 130.856 95.0297C130.856 93.3383 129.397 91.8884 127.695 91.8884Z" fill="#307BC4"/>
<path d="M153.951 160.513C152.25 160.513 150.791 161.963 150.791 163.654C150.791 165.346 152.25 166.795 153.951 166.795C161.488 166.795 167.809 160.755 167.809 153.022C167.809 149.398 166.35 146.015 163.676 143.357C161.002 140.699 157.598 139.491 153.951 139.491H116.269L109.948 149.881H86.8524L85.3938 143.357C84.9075 141.182 83.692 139.491 81.7471 138.282C80.0453 137.074 77.8573 136.833 75.6693 137.316C72.0226 138.041 69.3484 141.424 69.3484 145.048C69.3484 145.773 69.3484 146.256 69.5915 146.74L71.2933 153.747L71.5364 154.23C71.7795 154.955 72.5088 157.372 73.2382 159.788C73.9675 161.963 74.4537 163.896 74.6968 164.379C74.6968 165.829 75.9124 166.554 77.3711 166.554H78.1004C79.8022 166.071 80.7746 164.379 80.2884 162.929C80.0453 162.446 79.5591 160.271 78.8297 158.097C78.1004 155.68 77.3711 153.505 77.128 152.781L75.4262 145.531V145.29C75.4262 144.323 76.1555 143.598 76.8849 143.357C77.3711 143.357 77.8573 143.357 78.3435 143.598C78.8298 143.84 79.0729 144.323 79.316 144.807L81.9902 156.163H113.595L119.916 145.531H153.951C155.896 145.531 157.841 146.256 159.3 147.706C160.758 149.156 161.488 151.089 161.488 153.264C161.488 157.13 158.084 160.513 153.951 160.513Z" fill="#307BC4"/>
<path d="M180.208 146.256C187.501 146.256 193.579 140.216 193.579 132.966C193.579 125.717 187.501 119.677 180.208 119.677C172.914 119.677 166.836 125.717 166.836 132.966C166.836 140.216 172.671 146.256 180.208 146.256ZM180.208 125.717C184.34 125.717 187.501 129.1 187.501 132.966C187.501 136.833 184.097 140.216 180.208 140.216C176.318 140.216 172.914 136.833 172.914 132.966C172.914 129.1 176.075 125.717 180.208 125.717Z" fill="#307BC4"/>
<path d="M195.28 150.364L178.019 166.795C172.671 171.87 165.621 174.769 158.084 174.769H75.1831C69.1053 174.769 64 179.844 64 185.885C64 191.926 69.1053 197 75.1831 197H158.084C171.212 197 183.854 191.926 193.335 182.985L210.596 166.554C212.784 164.621 214 161.721 214 158.822C214 155.922 213.028 153.022 210.84 150.848C206.95 146.256 199.9 146.256 195.28 150.364ZM206.707 162.204L189.446 178.636C180.937 186.61 169.997 190.959 158.327 190.959H75.1831C72.2658 190.959 70.0778 188.784 70.0778 185.885C70.0778 182.985 72.2658 180.81 75.1831 180.81H158.084C167.079 180.81 175.588 177.427 182.152 171.145L199.413 154.714C201.358 152.781 204.762 152.781 206.707 154.955C207.679 155.922 208.165 157.13 208.165 158.58C208.165 160.03 207.679 161.238 206.707 162.204Z" fill="#307BC4"/>
<path d="M69.1055 122.576H152.979V67H69.1055V122.576ZM75.1833 73.0409H146.901V116.535H75.1833V73.0409Z" fill="#307BC4"/>
</g>
<defs>
<linearGradient id="paint0_linear_2154_361" x1="0" y1="142" x2="260" y2="142" gradientUnits="userSpaceOnUse">
<stop stop-color="#CBE6F0"/>
<stop offset="1" stop-color="#98C6F0"/>
</linearGradient>
<clipPath id="clip0_2154_361">
<rect width="150" height="130" fill="white" transform="translate(64 67)"/>
</clipPath>
</defs>
</svg>
